<svg width="127" height="20" viewBox="0 0 127 20" fill="none" xmlns="http://www.w3.org/2000/svg">
<path d="M16.628 0.223267H17.2611C17.7993 0.223267 18.1627 0.785584 17.952 1.29226L10.4642 19.2633C10.3461 19.5463 10.0741 19.7304 9.7732 19.7304H8.31197C8.01105 19.7304 7.73905 19.5469 7.621 19.2633L0.133127 1.29226C-0.0775222 0.785584 0.285905 0.223267 0.824101 0.223267H1.51681C1.82063 0.223267 2.09494 0.410903 2.21068 0.697981L8.3519 15.8989C8.60711 16.5311 9.48154 16.5323 9.73906 15.9013L15.9353 0.695613C16.0516 0.409719 16.3253 0.223267 16.628 0.223267Z" fill="white"/>
<path d="M36.1234 1.8142H28.4289C28.0551 1.8142 27.7524 2.12436 27.7524 2.50614V8.40515C27.7524 8.78752 28.0556 9.09709 28.4289 9.09709H35.2032C35.5771 9.09709 35.8797 9.40726 35.8797 9.78904V10.0234C35.8797 10.4058 35.5765 10.7154 35.2032 10.7154H28.4289C28.0551 10.7154 27.7524 11.0255 27.7524 11.4073V17.4182C27.7524 17.8006 28.0556 18.1102 28.4289 18.1102H36.1234C36.4972 18.1102 36.7999 18.4203 36.7999 18.8021V19.0365C36.7999 19.4189 36.4967 19.7284 36.1234 19.7284H26.2819C25.9081 19.7284 25.6054 19.4183 25.6054 19.0365V1.68338C25.6054 0.861807 26.257 0.195312 27.0603 0.195312H36.124C36.4978 0.195312 36.8005 0.505475 36.8005 0.887259V1.12166C36.7999 1.50403 36.4972 1.8142 36.1234 1.8142Z" fill="white"/>
<path d="M51.4607 0.223267C56.4295 0.223267 58.7605 2.67912 58.7605 5.88847C58.7605 8.29578 57.4231 10.3651 54.5261 11.2056C54.0319 11.3489 53.8201 11.9449 54.1095 12.3794L58.2044 18.527C58.5447 19.0378 58.187 19.7304 57.5823 19.7304H56.8323C56.5805 19.7304 56.3456 19.6013 56.2061 19.3871L51.3467 11.9242C51.2072 11.7099 50.9723 11.5809 50.7205 11.5809H47.9196C47.5041 11.5809 47.1673 11.9254 47.1673 12.3504V18.9597C47.1673 19.3847 46.8305 19.7292 46.415 19.7292H45.7732C45.3577 19.7292 45.0209 19.3847 45.0209 18.9597V0.993346C45.0209 0.568352 45.3577 0.223859 45.7732 0.223859H51.4607V0.223267ZM51.4607 1.86997H47.919C47.5035 1.86997 47.1667 2.21446 47.1667 2.63946V9.22094C47.1667 9.64593 47.5035 9.99043 47.919 9.99043H51.4914C54.9879 9.99043 56.5522 8.26027 56.5522 5.88788C56.5522 3.43262 55.0799 1.86997 51.4607 1.86997Z" fill="white"/>
<path d="M73.5132 19.9256C69.6405 19.9256 66.9657 18.1102 66.3876 15.5632C66.288 15.1258 66.6098 14.7067 67.0484 14.7067H67.9761C68.2851 14.7067 68.56 14.9156 68.6393 15.221C69.0259 16.7115 70.4078 18.2789 73.5126 18.2789C76.4877 18.2789 78.236 16.6884 78.236 14.6789C78.236 8.9302 66.4582 12.558 66.4582 5.21831C66.4582 2.20429 69.1879 0 73.3286 0C76.9264 0 79.2597 1.60645 80.0126 3.82317C80.1654 4.27361 79.8361 4.74418 79.3697 4.74418H78.4125C78.1301 4.74418 77.8749 4.5672 77.7776 4.29611C77.3263 3.03651 75.8922 1.69938 73.236 1.67452C70.7209 1.6467 68.6353 2.90215 68.6353 5.16267C68.6353 10.8 80.4131 7.33913 80.4131 14.5954C80.4142 17.2466 78.0525 19.9256 73.5132 19.9256Z" fill="white"/>
<path d="M89.0668 0.223267H89.98C90.3208 0.223267 90.5969 0.505609 90.5969 0.854246V12.5025C90.5969 16.5488 92.9279 18.1955 96.2711 18.1955C99.6143 18.1955 101.884 16.5488 101.884 12.5025V0.854246C101.884 0.505609 102.16 0.223267 102.501 0.223267H103.414C103.755 0.223267 104.031 0.505609 104.031 0.854246V12.4747C104.031 17.6374 100.596 19.9257 96.2404 19.9257C91.8851 19.9257 88.4499 17.6374 88.4499 12.4747V0.854246C88.4499 0.505609 88.7259 0.223267 89.0668 0.223267Z" fill="white"/>
<path d="M119.306 19.9256C115.398 19.9256 112.71 18.0771 112.165 15.4939C112.079 15.0885 112.386 14.7073 112.791 14.7073H113.808C114.101 14.7073 114.354 14.9121 114.428 15.2027C114.807 16.6985 116.188 18.2795 119.306 18.2795C122.281 18.2795 124.029 16.689 124.029 14.6795C124.029 8.93081 112.251 12.5586 112.251 5.21892C112.251 2.2049 114.981 0.000610352 119.122 0.000610352C122.748 0.000610352 125.09 1.63311 125.824 3.87823C125.963 4.30382 125.658 4.7448 125.219 4.7448H124.172C123.903 4.7448 123.667 4.56841 123.576 4.30974C123.13 3.0466 121.695 1.69999 119.03 1.67513C116.515 1.64731 114.429 2.90276 114.429 5.16328C114.429 10.8007 126.207 7.33974 126.207 14.596C126.207 17.2466 123.845 19.9256 119.306 19.9256Z" fill="white"/>
</svg>
